<svg height="334" viewBox="0 0 563 334" width="563" xmlns="http://www.w3.org/2000/svg" xmlns:xlink="http://www.w3.org/1999/xlink"><defs><rect id="a" height="334" rx="33" width="563"/><rect id="b" height="89.904762" rx="20" width="93.714286" y=".047619"/><filter id="c" height="144.5%" width="142.7%" x="-10.7%" y="-11.1%"><feOffset dx="10" dy="10" in="SourceAlpha" result="shadowOffsetOuter1"/><feGaussianBlur in="shadowOffsetOuter1" result="shadowBlurOuter1" stdDeviation="5"/><feColorMatrix in="shadowBlurOuter1" type="matrix" values="0 0 0 0 0.0796526944   0 0 0 0 0.106037877   0 0 0 0 0.196501359  0 0 0 0.09 0"/></filter><path id="d" d="m284.890825 161.228307c24.007135 0 45.749794 5.737902 64.070167 16.055896 18.320373 10.317995 33.21846 25.216082 43.536455 43.536455s16.055896 40.063032 16.055896 64.070167-5.737901 45.749794-16.055896 64.070167-25.216082 33.21846-43.536455 43.536455-40.063032 16.055896-64.070167 16.055896-45.749794-5.737901-64.070167-16.055896-33.21846-25.216082-43.536455-43.536455c-10.317994-18.320373-16.055896-40.063032-16.055896-64.070167s5.737902-45.749794 16.055896-64.070167c10.317995-18.320373 25.216082-33.21846 43.536455-43.536455 18.320373-10.317994 40.063032-16.055896 64.070167-16.055896z"/><filter id="e" height="148.2%" width="148.2%" x="-24.1%" y="-20%"><feMorphology in="SourceAlpha" operator="dilate" radius="0.584637269" result="shadowSpreadOuter1"/><feOffset dx="0" dy="10" in="shadowSpreadOuter1" result="shadowOffsetOuter1"/><feMorphology in="SourceAlpha" operator="erode" radius="1" result="shadowInner"/><feOffset dx="0" dy="10" in="shadowInner" result="shadowInner"/><feComposite in="shadowOffsetOuter1" in2="shadowInner" operator="out" result="shadowOffsetOuter1"/><feGaussianBlur in="shadowOffsetOuter1" result="shadowBlurOuter1" stdDeviation="18"/><feColorMatrix in="shadowBlurOuter1" type="matrix" values="0 0 0 0 1   0 0 0 0 0.839215686   0 0 0 0 0.278431373  0 0 0 0.4 0"/></filter><path id="f" d="m285.5 84.4722617c39.026378 0 74.371586 9.3276228 104.153473 26.1007173 29.781887 16.773095 54.000453 40.991661 70.773548 70.773548 16.773094 29.781887 26.100717 65.127095 26.100717 104.153473s-9.327623 74.371586-26.100717 104.153473c-16.773095 29.781887-40.991661 54.000453-70.773548 70.773548-29.781887 16.773094-65.127095 26.100717-104.153473 26.100717s-74.371586-9.327623-104.153473-26.100717c-29.781887-16.773095-54.000453-40.991661-70.773548-70.773548-16.7730945-29.781887-26.1007173-65.127095-26.1007173-104.153473s9.3276228-74.371586 26.1007173-104.153473c16.773095-29.781887 40.991661-54.000453 70.773548-70.773548 29.781887-16.7730945 65.127095-26.1007173 104.153473-26.1007173z"/><filter id="g" height="149.3%" width="149.3%" x="-24.6%" y="-21.2%"><feMorphology in="SourceAlpha" operator="dilate" radius="0.584637269" result="shadowSpreadOuter1"/><feOffset dx="0" dy="14" in="shadowSpreadOuter1" result="shadowOffsetOuter1"/><feMorphology in="SourceAlpha" operator="erode" radius="1" result="shadowInner"/><feOffset dx="0" dy="14" in="shadowInner" result="shadowInner"/><feComposite in="shadowOffsetOuter1" in2="shadowInner" operator="out" result="shadowOffsetOuter1"/><feGaussianBlur in="shadowOffsetOuter1" result="shadowBlurOuter1" stdDeviation="30.5"/><feColorMatrix in="shadowBlurOuter1" type="matrix" values="0 0 0 0 1   0 0 0 0 0.839215686   0 0 0 0 0.278431373  0 0 0 0.4 0"/></filter><path id="h" d="m285.5 0c55.471297 0 105.683952 13.2317899 147.980248 37.0376539s76.676234 58.185802 100.482098 100.4820981c23.805864 42.296296 37.037654 92.508951 37.037654 147.980248s-13.23179 105.683952-37.037654 147.980248-58.185802 76.676234-100.482098 100.482098-92.508951 37.037654-147.980248 37.037654-105.683952-13.23179-147.980248-37.037654c-42.2962961-23.805864-76.6762341-58.185802-100.4820981-100.482098s-37.0376539-92.508951-37.0376539-147.980248 13.2317899-105.683952 37.0376539-147.980248c23.805864-42.2962961 58.185802-76.6762341 100.4820981-100.4820981 42.296296-23.805864 92.508951-37.0376539 147.980248-37.0376539z"/><filter id="i" height="149.5%" width="149.5%" x="-24.8%" y="-21.2%"><feMorphology in="SourceAlpha" operator="dilate" radius="0.82974428" result="shadowSpreadOuter1"/><feOffset dx="0" dy="20" in="shadowSpreadOuter1" result="shadowOffsetOuter1"/><feMorphology in="SourceAlpha" operator="erode" radius="1" result="shadowInner"/><feOffset dx="0" dy="20" in="shadowInner" result="shadowInner"/><feComposite in="shadowOffsetOuter1" in2="shadowInner" operator="out" result="shadowOffsetOuter1"/><feGaussianBlur in="shadowOffsetOuter1" result="shadowBlurOuter1" stdDeviation="43.5"/><feColorMatrix in="shadowBlurOuter1" type="matrix" values="0 0 0 0 1   0 0 0 0 0.839215686   0 0 0 0 0.278431373  0 0 0 0.4 0"/></filter><circle id="j" cx="466.361769" cy="200.255924" r="14.432859"/><filter id="k" height="162.4%" width="162.4%" x="-31.2%" y="-20.8%"><feOffset dx="0" dy="3" in="SourceAlpha" result="shadowOffsetOuter1"/><feGaussianBlur in="shadowOffsetOuter1" result="shadowBlurOuter1" stdDeviation="2.5"/><feColorMatrix in="shadowBlurOuter1" type="matrix" values="0 0 0 0 0.792156863   0 0 0 0 0.792156863   0 0 0 0 0.792156863  0 0 0 0.5 0"/></filter><circle id="l" cx="198.451817" cy="370.744076" r="14.432859"/><filter id="m" height="162.4%" width="162.4%" x="-31.2%" y="-20.8%"><feOffset dx="0" dy="3" in="SourceAlpha" result="shadowOffsetOuter1"/><feGaussianBlur in="shadowOffsetOuter1" result="shadowBlurOuter1" stdDeviation="2.5"/><feColorMatrix in="shadowBlurOuter1" type="matrix" values="0 0 0 0 0.792156863   0 0 0 0 0.792156863   0 0 0 0 0.792156863  0 0 0 0.5 0"/></filter><linearGradient id="n" x1="100%" x2="0%" y1="50%" y2="50%"><stop offset="0" stop-color="#ffd900"/><stop offset="1" stop-color="#ffe422"/></linearGradient><circle id="o" cx="457.341232" cy="391.491311" r="14.432859"/><filter id="p" height="162.4%" width="162.4%" x="-31.2%" y="-20.8%"><feOffset dx="0" dy="3" in="SourceAlpha" result="shadowOffsetOuter1"/><feGaussianBlur in="shadowOffsetOuter1" result="shadowBlurOuter1" stdDeviation="2.5"/><feColorMatrix in="shadowBlurOuter1" type="matrix" values="0 0 0 0 0.792156863   0 0 0 0 0.792156863   0 0 0 0 0.792156863  0 0 0 0.5 0"/></filter><circle id="q" cx="96.519747" cy="224.611374" r="14.432859"/><filter id="r" height="162.4%" width="162.4%" x="-31.2%" y="-20.8%"><feOffset dx="0" dy="3" in="SourceAlpha" result="shadowOffsetOuter1"/><feGaussianBlur in="shadowOffsetOuter1" result="shadowBlurOuter1" stdDeviation="2.5"/><feColorMatrix in="shadowBlurOuter1" type="matrix" values="0 0 0 0 0.792156863   0 0 0 0 0.792156863   0 0 0 0 0.792156863  0 0 0 0.5 0"/></filter><mask id="s" fill="#fff"><use fill="#fff" fill-rule="evenodd" xlink:href="#a"/></mask></defs><g fill="none" fill-rule="evenodd"><use fill="none" xlink:href="#a"/><g mask="url(#s)"><g transform="translate(-40 -118)"><g fill-rule="evenodd" transform="translate(205 205)"><circle cx="80" cy="80" fill="#fbd94c" r="80"/><g transform="translate(32 37.666667)"><use fill="#000" filter="url(#c)" xlink:href="#b"/><use fill="#fff" fill-rule="evenodd" xlink:href="#b"/></g></g><g opacity=".8"><use fill="#000" filter="url(#e)" xlink:href="#d"/><use stroke="#e6d4c0" stroke-width="1.169275" xlink:href="#d"/></g><g opacity=".6"><use fill="#000" filter="url(#g)" xlink:href="#f"/><use stroke="#e6d4c0" stroke-width="1.169275" xlink:href="#f"/></g><g opacity=".3"><use fill="#000" filter="url(#i)" xlink:href="#h"/><use stroke="#e6d4c0" stroke-width="1.659489" xlink:href="#h"/></g><use fill="#000" filter="url(#k)" xlink:href="#j"/><use fill="#fff" fill-rule="evenodd" xlink:href="#j"/><use fill="#000" filter="url(#m)" xlink:href="#l"/><use fill="#fff" fill-rule="evenodd" xlink:href="#l"/><use fill="#000" filter="url(#p)" xlink:href="#o"/><use fill="url(#n)" fill-rule="evenodd" xlink:href="#o"/><use fill="#000" filter="url(#r)" xlink:href="#q"/><use fill="url(#n)" fill-rule="evenodd" xlink:href="#q"/></g></g><g transform="translate(210 136)"><path d="m8.2299 41.4629h18.73c8.158 0 14.77-6.613 14.77-14.77v-14.27c-3 14.11-16.49 12.55-16.49 12.55h-17c-4.551 0-8.239 3.689-8.239 8.24v.01c0 4.547 3.682 8.234 8.229 8.24" fill="#fdc60d"/><path d="m41.7299 12.4228v-4.46c-.158-4.554-3.979-8.116-8.532-7.957-4.331.15-7.807 3.626-7.958 7.957v17s13.511 1.57 16.49-12.54" fill="#fcb814"/><path d="m58.7396 24.9726h-18.72c-8.163 0-14.78 6.617-14.78 14.78v14.26c3-14.1 16.49-12.55 16.49-12.55h17c4.551.006 8.244-3.679 8.25-8.23v-.01c0-4.552-3.687-8.244-8.24-8.25" fill="#fcd205"/><path d="m25.2396 54.0127v4.46c-.158 4.554 3.404 8.374 7.958 8.532 4.554.159 8.374-3.404 8.532-7.957.007-.192.007-.384 0-.575v-17s-13.51-1.58-16.49 12.54" fill="#fcb814"/></g></g></svg>